# xmcd
#
# Track frame offsets:
#	150
#	19749
#	36645
#	52445
#	67059
#	86271
#	104309
#	122534
#	139055
#	153014
#	164575
#	181430
#	196339
#	212496
#	226545
#	238594
#	255147
#	270227
#	281774
#	299688
#	313532
#	332687
#	346670
#
# Disc length: 4628 seconds
#
# Revision: 1
# Processed by: cddbd v1.5.2PL0 Copyright (c) Steve Scherf et al.
# Submitted via: audiograbber 1.83.01
#
DISCID=48121217
DTITLE=Country Hotdisc - Country Hotdisc 109
DYEAR=2008
DGENRE=Country
TTITLE0=Till We Ain´t Strangers Anymore  - Leann Rimes and Bon Jovi
TTITLE1=I Wish I Could Re-write The Ending - Lucie Diamond
TTITLE2=I´m Your Radio  - Jeff Griffith
TTITLE3=Honky Tonky Round  - Red Jenkins and Bill Green
TTITLE4=Honey Who Do You Love  - Bill Durham
TTITLE5=Knocklayde Mountain  - T J Stuart and Brenda Mulgrew
TTITLE6=Just Being Me  - Richard Frankz
TTITLE7=Speak To Me Darling  - Charlie Landsborough
TTITLE8=Drug Problem  - The Bellamy Brothers
TTITLE9=Just Kiss Me Again  - Mike Runnels
TTITLE10=The Road To Chalamette  - Bryan Chalker
TTITLE11=Closets  - The Wilkinsons
TTITLE12=One More Midnight  - Hal Ketchum
TTITLE13=Old Town Habits - Celia Bryce
TTITLE14=Trying To Get The Girl - Sammy Sadler
TTITLE15=Spending Time With Friends  - Isla Grant and Georg Hamilton Iv
TTITLE16=Love Me A Little Bit Longer  - Chrissy Byrne
TTITLE17=Country Music Has Gone To Hell  - Michael Martin
TTITLE18=Mountains To The Sea  - Highway Dave and The Varmints
TTITLE19=Faded Love  - Daniel Mcphee
TTITLE20=Suspiccions  - Tim Mcgraw
TTITLE21=The Night Are So Lonely - Kerr Donnelly Band
TTITLE22=Radio Liner  - Lucie Diamond
EXTD=
EXTT0=
EXTT1=
EXTT2=
EXTT3=
EXTT4=
EXTT5=
EXTT6=
EXTT7=
EXTT8=
EXTT9=
EXTT10=
EXTT11=
EXTT12=
EXTT13=
EXTT14=
EXTT15=
EXTT16=
EXTT17=
EXTT18=
EXTT19=
EXTT20=
EXTT21=
EXTT22=
PLAYORDER=
